<svg id="Layer_1" height="512" viewBox="0 0 512 512" width="512" xmlns="http://www.w3.org/2000/svg" data-name="Layer 1"><path d="m178.76 115.83a33.8 33.8 0 0 0 -5.47.81 44.274 44.274 0 0 0 -13.3 5.6q-8.1 1.32-15.73 3.15c-95.86 22.99-135.99 105.63-125.69 192.46 11.85 99.85 98.55 171.68 193.64 160.43a165.826 165.826 0 0 0 66.75-22.98v-.01l16.44-301.64v-.01c-32.41-26.1-73.41-40.46-116.64-37.81z" fill="#7c3245"/><path d="m173.29 116.64a44.274 44.274 0 0 0 -13.3 5.6q-8.1 1.32-15.73 3.15c-6.73-28.42-8.46-30.09-28.06-63.78a3.716 3.716 0 0 1 -.16-3.43l10.84-23.45a3.743 3.743 0 0 1 6.48-.55c26.56 38.52 28.6 47.14 39.93 82.46z" fill="#5c776c"/><path d="m336.05 148.41c87.78 0 158.95 71.06 158.95 158.72s-71.17 158.71-158.95 158.71a158.783 158.783 0 0 1 -158.96-158.71c0-73.63 50.21-135.54 118.31-153.48a159.269 159.269 0 0 1 40.65-5.24z" fill="#e2798d"/><path d="m336.05 178.36c71.22 0 128.96 57.65 128.96 128.77s-57.74 128.77-128.96 128.77-128.96-57.66-128.96-128.77 57.73-128.77 128.96-128.77z" fill="#f5c577"/><g fill="#6d6653"><path d="m418.88 313.68c10.4-4.1 32.75-10.8 29.1 9.29-2.93 16.08-21.47 3.34-29.97-3.48a3.4 3.4 0 0 1 .87-5.81z"/><path d="m443.16 272.61c4.65 15.66-17.65 12.65-28.31 10.38a3.4 3.4 0 0 1 -1.86-5.57c7.43-8.35 24.36-24.39 30.17-4.81z"/><path d="m405.17 350.18c11.13 1.05 34.09 5.21 21.71 21.46-9.92 13-20.65-6.75-25.12-16.68a3.394 3.394 0 0 1 3.41-4.78z"/><path d="m420.1 232.19c10.67 12.38-10.91 18.76-21.56 21.07a3.4 3.4 0 0 1 -3.98-4.33c3.34-10.65 12.19-32.22 25.54-16.74z"/><path d="m365.15 302.28c9.73-5.5 30.93-15.23 30.11 5.17-.67 16.33-20.8 6.29-30.16.71a3.4 3.4 0 0 1 .05-5.88z"/><path d="m375.74 377.27c9.26 6.24 27.43 20.88 8.76 29.22-14.94 6.67-14.89-15.8-14.05-26.65a3.4 3.4 0 0 1 5.29-2.57z"/><path d="m383.59 205.28c14.74 7.09-2.48 21.55-11.32 27.92a3.406 3.406 0 0 1 -5.38-2.38c-1.2-11.1-1.73-34.4 16.7-25.54z"/><path d="m380 265.79c11.09 12.01-10.26 19.12-20.83 21.79a3.4 3.4 0 0 1 -4.12-4.19c2.98-10.76 11.08-32.61 24.95-17.6z"/><path d="m358.91 322.78c10.78 2.97 32.66 11.07 17.63 24.91-12.03 11.08-19.15-10.24-21.82-20.8a3.394 3.394 0 0 1 4.19-4.11z"/><path d="m341.3 386.87c5.67 9.63 15.75 30.64-4.69 30.15-16.36-.4-6.63-20.66-1.19-30.1a3.4 3.4 0 0 1 5.88-.05z"/><path d="m339.7 247.1c16.35.66 6.29 20.77.71 30.11a3.414 3.414 0 0 1 -5.89-.04c-5.51-9.72-15.25-30.89 5.18-30.07z"/><path d="m339.99 332.86c5.52 9.72 15.26 30.89-5.18 30.07-16.35-.67-6.29-20.77-.7-30.12a3.409 3.409 0 0 1 5.88.05z"/><path d="m337.91 195.18c16.36.39 6.63 20.65 1.19 30.09a3.4 3.4 0 0 1 -5.88.05c-5.67-9.63-15.76-30.64 4.69-30.14z"/><path d="m319.8 283.13a3.4 3.4 0 0 1 -4.2 4.12c-10.78-2.97-32.66-11.07-17.62-24.91 12.03-11.08 19.15 10.24 21.82 20.79z"/><path d="m315.34 322.45a3.4 3.4 0 0 1 4.13 4.19c-2.98 10.76-11.09 32.61-24.95 17.6-11.09-12.01 10.25-19.13 20.82-21.79z"/><path d="m309.42 301.87a3.392 3.392 0 0 1 -.05 5.87c-9.73 5.51-30.94 15.24-30.11-5.17.66-16.32 20.79-6.28 30.16-.7z"/></g><path d="m48.57 317.85c-10.3-86.83 29.83-169.47 125.69-192.46q7.635-1.83 15.73-3.15a44.274 44.274 0 0 1 13.3-5.6c.554-.127 1.1-.236 1.65-.336a165.724 165.724 0 0 0 -26.18-.474 33.8 33.8 0 0 0 -5.47.81 44.274 44.274 0 0 0 -13.3 5.6q-8.1 1.32-15.73 3.15c-95.86 22.99-135.99 105.63-125.69 192.46 11.659 98.244 95.781 169.361 189.059 160.907-80.703-7.326-148.667-73.338-159.059-160.907z" fill="#632a3a"/><path d="m237.09 307.13a128.844 128.844 0 0 1 113.959-127.9 130.526 130.526 0 0 0 -15-.872c-71.23 0-128.96 57.65-128.96 128.77s57.731 128.772 128.961 128.772a130.526 130.526 0 0 0 15-.872 128.853 128.853 0 0 1 -113.96-127.898z" fill="#d6ad72"/><path d="m307.63 381.37c1.2 11.1 1.72 34.4-16.7 25.54-14.75-7.09 2.47-21.55 11.32-27.92a3.406 3.406 0 0 1 5.38 2.38z" fill="#6d6653"/><path d="m290.02 205.7c14.93-6.67 14.89 15.8 14.05 26.65a3.4 3.4 0 0 1 -5.29 2.57c-9.27-6.24-27.43-20.88-8.76-29.22z" fill="#6d6653"/><path d="m275.98 358.93a3.4 3.4 0 0 1 3.98 4.33c-3.35 10.66-12.2 32.22-25.54 16.74-10.68-12.38 10.9-18.76 21.56-21.07z" fill="#6d6653"/><path d="m272.76 257.23a3.4 3.4 0 0 1 -3.41 4.78c-11.14-1.05-34.1-5.21-21.71-21.46 9.91-13 20.65 6.75 25.12 16.68z" fill="#6d6653"/><path d="m259.67 329.2a3.393 3.393 0 0 1 1.85 5.57c-7.43 8.35-24.35 24.39-30.17 4.81-4.65-15.66 17.65-12.65 28.32-10.38z" fill="#6d6653"/><path d="m256.5 290.54a3.4 3.4 0 0 1 -.86 5.81c-10.4 4.1-32.76 10.8-29.1-9.3 2.93-16.07 21.46-3.34 29.96 3.49z" fill="#6d6653"/><path d="m47.823 291.981a6 6 0 0 1 -5.988-5.706c-.239-4.863-.333-9.852-.279-14.827a6 6 0 1 1 12 .13c-.051 4.736.039 9.482.266 14.108a6 6 0 0 1 -5.7 6.288c-.099.005-.2.007-.299.007z" fill="#f4f8fc"/><path d="m84.434 397.468a5.972 5.972 0 0 1 -4.375-1.9c-1.19-1.272-29.228-31.835-36.716-91.854a6 6 0 0 1 11.907-1.484c6.974 55.895 33.315 84.865 33.581 85.151a6 6 0 0 1 -4.4 10.087z" fill="#f4f8fc"/></svg>